HIERARCHY
ROOT Haolin_28_06:Solving:Hips
{
	OFFSET 0.000000 0.000000 0.000000
	CHANNELS 6 Xposition Yposition Zposition Xrotation Yrotation Zrotation
	JOINT Haolin_28_06:Solving:Spine
	{
		OFFSET 0.000000 -12.181966 2.015561
		CHANNELS 6 Xposition Yposition Zposition Xrotation Yrotation Zrotation
		JOINT Haolin_28_06:Solving:Spine1
		{
			OFFSET 0.000000 -8.890296 1.567602
			CHANNELS 6 Xposition Yposition Zposition Xrotation Yrotation Zrotation
			JOINT Haolin_28_06:Solving:Spine2
			{
				OFFSET 0.000000 -8.993092 0.786796
				CHANNELS 6 Xposition Yposition Zposition Xrotation Yrotation Zrotation
				JOINT Haolin_28_06:Solving:Spine3
				{
					OFFSET 0.000000 -9.027443 0.000000
					CHANNELS 6 Xposition Yposition Zposition Xrotation Yrotation Zrotation
					JOINT Haolin_28_06:Solving:Neck
					{
						OFFSET 0.000000 -11.606712 -1.160669
						CHANNELS 6 Xposition Yposition Zposition Xrotation Yrotation Zrotation
						JOINT Haolin_28_06:Solving:Neck1
						{
							OFFSET 0.000000 -7.471592 -0.653680
							CHANNELS 6 Xposition Yposition Zposition Xrotation Yrotation Zrotation
							JOINT Haolin_28_06:Solving:Head
							{
								OFFSET 0.000000 -7.386181 -1.302382
								CHANNELS 6 Xposition Yposition Zposition Xrotation Yrotation Zrotation
								JOINT Haolin_28_06:Solving:HeadEnd
								{
									OFFSET 0.000000 -9.728081 0.000002
									CHANNELS 6 Xposition Yposition Zposition Xrotation Yrotation Zrotation
									End Site
									{
										OFFSET 0.000000 -9.728081 0.000002
									}
								}
							}
						}
					}
					JOINT Haolin_28_06:Solving:RightShoulder
					{
						OFFSET 0.000000 -8.290508 -5.270916
						CHANNELS 6 Xposition Yposition Zposition Xrotation Yrotation Zrotation
						JOINT Haolin_28_06:Solving:RightArm
						{
							OFFSET -19.261074 -0.000008 0.000000
							CHANNELS 6 Xposition Yposition Zposition Xrotation Yrotation Zrotation
							JOINT Haolin_28_06:Solving:RightForeArm
							{
								OFFSET -30.691700 -0.000011 0.000000
								CHANNELS 6 Xposition Yposition Zposition Xrotation Yrotation Zrotation
								JOINT Haolin_28_06:Solving:RightHand
								{
									OFFSET -20.216934 -0.000008 0.000000
									CHANNELS 6 Xposition Yposition Zposition Xrotation Yrotation Zrotation
									JOINT Haolin_28_06:Solving:RightHandThumb1
									{
										OFFSET -4.948814 2.881329 -3.679893
										CHANNELS 6 Xposition Yposition Zposition Xrotation Yrotation Zrotation
										End Site
										{
											OFFSET -7.039886 -0.000004 -7.104978
										}
									}
									JOINT Haolin_28_06:Solving:RightHandMiddle1
									{
										OFFSET -13.196846 -0.000004 0.084595
										CHANNELS 6 Xposition Yposition Zposition Xrotation Yrotation Zrotation
										End Site
										{
											OFFSET -10.002037 -0.000004 0.000000
										}
									}
								}
							}
						}
					}
					JOINT Haolin_28_06:Solving:LeftShoulder
					{
						OFFSET 0.000000 -8.290508 -5.270916
						CHANNELS 6 Xposition Yposition Zposition Xrotation Yrotation Zrotation
						JOINT Haolin_28_06:Solving:LeftArm
						{
							OFFSET 19.261074 -0.000008 0.000000
							CHANNELS 6 Xposition Yposition Zposition Xrotation Yrotation Zrotation
							JOINT Haolin_28_06:Solving:LeftForeArm
							{
								OFFSET 30.691700 -0.000011 0.000000
								CHANNELS 6 Xposition Yposition Zposition Xrotation Yrotation Zrotation
								JOINT Haolin_28_06:Solving:LeftHand
								{
									OFFSET 20.216934 -0.000008 0.000000
									CHANNELS 6 Xposition Yposition Zposition Xrotation Yrotation Zrotation
									JOINT Haolin_28_06:Solving:LeftHandThumb1
									{
										OFFSET 4.948814 2.881329 -3.679893
										CHANNELS 6 Xposition Yposition Zposition Xrotation Yrotation Zrotation
										End Site
										{
											OFFSET 7.039886 -0.000004 -7.104978
										}
									}
									JOINT Haolin_28_06:Solving:LeftHandMiddle1
									{
										OFFSET 13.196846 -0.000004 0.084595
										CHANNELS 6 Xposition Yposition Zposition Xrotation Yrotation Zrotation
										End Site
										{
											OFFSET 10.002037 -0.000004 0.000000
										}
									}
								}
							}
						}
					}
				}
			}
		}
	}
	JOINT Haolin_28_06:Solving:RightUpLeg
	{
		OFFSET -10.083070 0.000000 0.000000
		CHANNELS 6 Xposition Yposition Zposition Xrotation Yrotation Zrotation
		JOINT Haolin_28_06:Solving:RightLeg
		{
			OFFSET 0.000000 47.042522 -0.000008
			CHANNELS 6 Xposition Yposition Zposition Xrotation Yrotation Zrotation
			JOINT Haolin_28_06:Solving:RightFoot
			{
				OFFSET 0.000000 38.766415 -0.000006
				CHANNELS 6 Xposition Yposition Zposition Xrotation Yrotation Zrotation
				JOINT Haolin_28_06:Solving:RightForeFoot
				{
					OFFSET 0.000000 3.531212 -0.000000
					CHANNELS 6 Xposition Yposition Zposition Xrotation Yrotation Zrotation
					JOINT Haolin_28_06:Solving:RightToeBase
					{
						OFFSET 0.000000 0.000000 -13.829352
						CHANNELS 6 Xposition Yposition Zposition Xrotation Yrotation Zrotation
						JOINT Haolin_28_06:Solving:RightToeBaseEnd
						{
							OFFSET 0.000000 0.000000 -4.034167
							CHANNELS 6 Xposition Yposition Zposition Xrotation Yrotation Zrotation
							End Site
							{
								OFFSET 0.000000 -4.034164 0.000004
							}
						}
					}
				}
			}
		}
	}
	JOINT Haolin_28_06:Solving:LeftUpLeg
	{
		OFFSET 10.083070 0.000000 0.000000
		CHANNELS 6 Xposition Yposition Zposition Xrotation Yrotation Zrotation
		JOINT Haolin_28_06:Solving:LeftLeg
		{
			OFFSET 0.000000 47.042522 -0.000008
			CHANNELS 6 Xposition Yposition Zposition Xrotation Yrotation Zrotation
			JOINT Haolin_28_06:Solving:LeftFoot
			{
				OFFSET 0.000000 38.766415 -0.000006
				CHANNELS 6 Xposition Yposition Zposition Xrotation Yrotation Zrotation
				JOINT Haolin_28_06:Solving:LeftForeFoot
				{
					OFFSET 0.000000 3.531212 -0.000000
					CHANNELS 6 Xposition Yposition Zposition Xrotation Yrotation Zrotation
					JOINT Haolin_28_06:Solving:LeftToeBase
					{
						OFFSET 0.000000 0.000000 -13.829352
						CHANNELS 6 Xposition Yposition Zposition Xrotation Yrotation Zrotation
						JOINT Haolin_28_06:Solving:LeftToeBaseEnd
						{
							OFFSET 0.000000 0.000000 -4.855067
							CHANNELS 6 Xposition Yposition Zposition Xrotation Yrotation Zrotation
							End Site
							{
								OFFSET 0.000000 -4.855064 0.000004
							}
						}
					}
				}
			}
		}
	}
}
MOTION
Frames: 4
Frame Time: 0.041667
-28.070873 42.869156 -92.654182 78.635237 40.889990 15.445778 0.000006 -12.181968 2.015570 15.132670 -0.007003 -6.811804 0.000000 -8.890297 1.567606 0.864292 0.381092 -0.890659 -0.000004 -8.993073 0.786795 0.367045 6.693833 -1.321675 -0.000001 -9.027425 0.000001 1.808645 1.611167 -3.566830 -0.000006 -11.606735 -1.160663 -1.625043 23.069630 -7.302575 0.000000 -7.471564 -0.653682 -0.403053 37.788705 0.127178 0.000001 -7.386182 -1.302379 6.259847 2.620362 -3.982116 -0.000003 -9.728073 -0.000009 0.000000 -0.000001 0.000000 -0.000001 -8.290520 -5.270916 -0.000015 22.880623 6.784904 -19.261082 -0.000029 0.000009 -15.236269 -53.618740 -83.827465 -30.691706 -0.000018 0.000004 -14.863943 -17.055560 -4.451108 -20.216927 -0.000011 -0.000013 0.977131 -12.524154 4.497134 -4.948827 2.881340 -3.679881 0.000002 -0.000000 0.000003 -13.196863 0.000006 0.084592 0.000001 0.000004 -0.000002 0.000001 -8.290531 -5.270913 -0.000003 -5.622758 -9.653532 19.261068 0.000001 -0.000000 -9.765563 50.873397 86.958574 30.691687 0.000008 -0.000001 10.545257 20.083150 -3.657534 20.216942 -0.000010 0.000007 -0.430622 3.697639 6.647435 4.948806 2.881332 -3.679898 0.000003 -0.000010 -0.000001 13.196860 0.000006 0.084583 -0.000005 -0.000001 -0.000002 -10.083063 -0.000012 0.000004 9.837605 -11.489408 -11.477000 -0.000001 47.042503 -0.000015 -5.892446 0.000002 0.000001 -0.000005 38.766438 0.000000 10.107366 2.383860 -4.803039 -0.000003 3.531197 0.000001 0.000001 -0.000001 0.000001 -0.000003 -0.000003 -13.829353 -6.996140 0.000001 -0.000001 -0.000009 -0.000007 -4.034173 0.000000 0.000004 0.000000 10.083076 -0.000012 0.000004 4.204484 -31.844422 -23.842879 -0.000001 47.042542 -0.000003 13.981793 -0.000002 0.000002 -0.000004 38.766418 -0.000014 5.529568 -24.518759 15.730692 0.000000 3.531204 -0.000001 0.000002 -0.000000 -0.000001 0.000001 0.000010 -13.829360 0.656478 -0.000000 0.000000 -0.000000 0.000000 -4.855058 0.000001 0.000002 -0.000000 
-28.106997 42.862862 -92.653969 78.580609 41.031409 15.509671 0.000004 -12.181976 2.015568 15.127080 0.003786 -6.812808 0.000001 -8.890304 1.567598 0.884929 0.382036 -0.885475 0.000003 -8.993094 0.786797 0.378816 6.815991 -1.340234 0.000004 -9.027435 -0.000001 1.797350 1.649807 -3.646374 0.000006 -11.606688 -1.160663 -1.584605 23.135449 -7.348462 -0.000004 -7.471602 -0.653686 -0.337969 37.757265 0.078181 0.000004 -7.386187 -1.302389 6.311348 2.615793 -3.983751 0.000010 -9.728088 0.000004 0.000003 0.000001 -0.000001 0.000008 -8.290462 -5.270918 -0.000017 22.945933 6.768698 -19.261061 0.000007 0.000004 -15.070353 -53.418151 -83.733741 -30.691689 -0.000017 0.000001 -14.774147 -16.852510 -4.372172 -20.216961 0.000000 -0.000001 0.997167 -12.479843 4.604984 -4.948810 2.881321 -3.679886 -0.000001 0.000009 -0.000003 -13.196836 -0.000013 0.084590 -0.000012 0.000003 0.000003 0.000009 -8.290459 -5.270918 -0.000007 -5.604458 -9.718694 19.261063 -0.000001 0.000001 -9.814488 52.197426 86.583330 30.691713 0.000008 0.000000 9.454917 20.585534 -3.351069 20.216940 -0.000013 0.000002 -0.345176 3.320678 5.937791 4.948818 2.881326 -3.679881 -0.000002 0.000000 -0.000005 13.196875 0.000005 0.084592 -0.000006 0.000000 -0.000002 -10.083065 -0.000013 0.000003 9.801564 -11.511300 -11.512764 -0.000004 47.042530 -0.000002 -5.778984 0.000003 0.000001 0.000005 38.766441 -0.000011 10.060429 2.303149 -4.784313 0.000001 3.531204 0.000009 0.000000 -0.000001 0.000000 0.000005 0.000011 -13.829359 -6.977993 0.000001 -0.000000 0.000001 -0.000015 -4.034169 -0.000000 0.000003 0.000001 10.083071 -0.000010 0.000012 4.172559 -32.087177 -23.880440 0.000004 47.042530 -0.000009 13.944010 0.000001 0.000003 -0.000003 38.766418 -0.000000 5.555643 -24.544015 15.673875 0.000003 3.531212 0.000005 0.000001 -0.000004 -0.000000 -0.000004 0.000002 -13.829364 0.657017 0.000007 -0.000000 -0.000003 -0.000007 -4.855073 0.000003 0.000003 -0.000000 
-28.146492 42.868843 -92.656670 78.538405 41.106944 15.530028 0.000003 -12.181937 2.015563 15.100773 -0.001050 -6.793710 -0.000004 -8.890298 1.567599 0.884041 0.384144 -0.872026 -0.000002 -8.993093 0.786793 0.399962 6.971747 -1.361500 -0.000003 -9.027472 0.000008 1.809538 1.697977 -3.715597 -0.000001 -11.606728 -1.160672 -1.575640 23.189339 -7.387699 -0.000003 -7.471602 -0.653677 -0.280351 37.712254 0.061804 0.000005 -7.386181 -1.302385 6.398163 2.604917 -3.946831 -0.000007 -9.728088 0.000010 0.000003 -0.000004 0.000000 0.000006 -8.290516 -5.270924 -0.000014 22.970563 6.742159 -19.261072 -0.000003 0.000013 -14.832835 -53.308923 -83.602239 -30.691690 -0.000016 -0.000001 -14.715590 -16.636464 -4.300099 -20.216930 0.000005 0.000015 1.022259 -12.437238 4.736203 -4.948817 2.881335 -3.679859 0.000002 -0.000000 0.000006 -13.196860 -0.000006 0.084617 0.000000 0.000002 0.000002 0.000006 -8.290531 -5.270922 -0.000005 -5.568757 -9.772862 19.261076 0.000010 0.000012 -10.040029 52.906553 86.367387 30.691704 0.000017 -0.000001 8.879813 20.847952 -3.182490 20.216934 0.000004 0.000003 -0.297990 3.121543 5.455807 4.948796 2.881328 -3.679882 -0.000004 -0.000012 -0.000005 13.196867 -0.000001 0.084597 -0.000001 -0.000001 -0.000002 -10.083073 0.000016 0.000006 9.807299 -11.477585 -11.517909 0.000006 47.042534 -0.000015 -5.696405 -0.000007 -0.000000 -0.000007 38.766415 -0.000001 10.012766 2.221290 -4.762601 -0.000001 3.531212 0.000002 0.000001 -0.000001 -0.000001 0.000010 -0.000001 -13.829362 -6.955689 -0.000008 -0.000001 0.000000 -0.000008 -4.034178 -0.000000 -0.000000 0.000002 10.083067 0.000027 0.000001 4.166959 -32.286075 -23.879043 0.000005 47.042522 -0.000010 13.887392 0.000001 -0.000001 -0.000008 38.766418 0.000004 5.608451 -24.558085 15.609151 0.000001 3.531204 0.000002 0.000002 -0.000001 0.000000 0.000000 0.000014 -13.829358 0.786640 -0.000002 0.000000 0.000004 0.000000 -4.855055 0.000002 -0.000001 0.000000 
-28.178421 42.876308 -92.661102 78.499296 41.186577 15.557455 0.000002 -12.181941 2.015575 15.076601 -0.006706 -6.782797 -0.000001 -8.890297 1.567596 0.883420 0.389126 -0.885540 0.000005 -8.993075 0.786784 0.423795 7.093680 -1.385841 -0.000002 -9.027441 -0.000003 1.817825 1.726559 -3.743437 -0.000006 -11.606706 -1.160686 -1.563496 23.222635 -7.403537 -0.000001 -7.471583 -0.653682 -0.222454 37.655212 0.029012 0.000003 -7.386207 -1.302395 6.453752 2.598068 -3.931399 -0.000003 -9.728081 0.000012 0.000000 -0.000001 0.000000 0.000004 -8.290520 -5.270928 -0.000012 22.965353 6.729852 -19.261074 -0.000020 0.000011 -14.619743 -53.172828 -83.508919 -30.691698 -0.000010 0.000000 -14.566557 -16.396434 -4.195299 -20.216928 0.000001 0.000025 1.023066 -12.362473 4.767940 -4.948822 2.881318 -3.679890 0.000007 -0.000000 0.000001 -13.196862 -0.000020 0.084583 0.000007 0.000001 -0.000001 0.000005 -8.290512 -5.270928 -0.000001 -5.379570 -9.874801 19.261068 -0.000023 -0.000001 -11.027433 51.165616 86.951914 30.691717 0.000008 -0.000001 10.481327 20.158380 -3.647929 20.216904 -0.000004 0.000009 -0.404389 3.679235 6.276663 4.948791 2.881339 -3.679898 0.000000 -0.000009 -0.000002 13.196844 0.000005 0.084590 -0.000004 -0.000003 -0.000002 -10.083071 0.000025 0.000012 9.801348 -11.436874 -11.529922 -0.000001 47.042530 -0.000008 -5.603167 0.000002 -0.000000 -0.000000 38.766441 -0.000010 9.980341 2.130976 -4.733098 -0.000000 3.531212 -0.000006 -0.000001 -0.000000 0.000000 -0.000008 0.000002 -13.829365 -6.965294 0.000007 0.000001 0.000005 -0.000007 -4.034177 0.000000 -0.000001 0.000000 10.083072 0.000011 0.000018 4.138905 -32.529278 -23.892912 -0.000001 47.042515 0.000002 13.818221 0.000001 0.000003 -0.000004 38.766430 -0.000018 5.645081 -24.551089 15.540706 0.000004 3.531219 0.000001 0.000001 -0.000002 -0.000000 0.000001 0.000020 -13.829361 0.731438 -0.000001 0.000001 -0.000001 0.000001 -4.855070 0.000003 0.000001 0.000001 
